<svg width="101" height="100" viewBox="0 0 101 100" fill="none" xmlns="http://www.w3.org/2000/svg">
<rect x="0.5" width="100" height="100" rx="25" fill="#4BCDE7"/>
<g clip-path="url(#clip0_1_138)">
<path d="M49.6458 23.5208C49.4792 23.625 47.8542 25.7188 46.0208 28.1563L42.6875 32.6042V33.2083C42.6875 33.875 42.8854 34.2708 43.375 34.5938C43.6354 34.7604 43.8854 34.7917 45.1146 34.7917H46.5417V41.4792C46.5417 48.9479 46.5104 48.6354 47.2604 49.1354C47.6042 49.375 47.6771 49.375 50.5 49.375C53.3229 49.375 53.3958 49.375 53.7396 49.1354C54.4896 48.6354 54.4583 48.9479 54.4583 41.4792V34.7917H55.8958C57.1146 34.7917 57.3646 34.7604 57.625 34.5938C58.1146 34.2708 58.3125 33.875 58.3125 33.2083V32.6042L54.9792 28.1563C53.1458 25.7188 51.5208 23.625 51.3542 23.5208C51.1667 23.3958 50.875 23.3333 50.5 23.3333C50.125 23.3333 49.8333 23.3958 49.6458 23.5208Z" fill="#031317"/>
<path d="M34.0208 29.771C33.8542 29.8752 32.2292 31.9689 30.3958 34.4064L27.0625 38.8543V39.4585C27.0625 40.1252 27.2604 40.521 27.75 40.8439C28.0104 41.0106 28.2604 41.0418 29.4896 41.0418H30.9167V44.6043C30.9167 48.5939 30.9271 48.6668 31.6354 49.1356C31.9792 49.3752 32.0521 49.3752 34.875 49.3752C39.0938 49.3752 38.8333 49.6877 38.8333 44.6043V41.0418H40.2708C41.4896 41.0418 41.7396 41.0106 42 40.8439C42.4896 40.521 42.6875 40.1252 42.6875 39.4585V38.8543L39.3542 34.4064C37.5208 31.9689 35.8958 29.8752 35.7292 29.771C35.5417 29.646 35.25 29.5835 34.875 29.5835C34.5 29.5835 34.2083 29.646 34.0208 29.771Z" fill="#031317"/>
<path d="M65.2708 29.771C65.1042 29.8752 63.4792 31.9689 61.6458 34.4064L58.3125 38.8543V39.4585C58.3125 40.1252 58.5104 40.521 59 40.8439C59.2604 41.0106 59.5104 41.0418 60.7396 41.0418H62.1667V44.6043C62.1667 48.5939 62.1771 48.6668 62.8854 49.1356C63.2292 49.3752 63.3021 49.3752 66.125 49.3752C70.3438 49.3752 70.0833 49.6877 70.0833 44.6043V41.0418H71.5208C72.7396 41.0418 72.9896 41.0106 73.25 40.8439C73.7396 40.521 73.9375 40.1252 73.9375 39.4585V38.8543L70.6042 34.4064C68.7708 31.9689 67.1458 29.8752 66.9792 29.771C66.7917 29.646 66.5 29.5835 66.125 29.5835C65.75 29.5835 65.4583 29.646 65.2708 29.771Z" fill="#031317"/>
<path d="M27.7812 52.9478C25.9583 53.5728 24.5937 54.9478 24.0416 56.7603C23.8437 57.3853 23.8333 57.7498 23.8333 64.729C23.8437 72.0103 23.8437 72.0311 24.0729 72.7186C24.6979 74.5415 26.0729 75.9061 27.8854 76.4582C28.5312 76.6665 28.9687 76.6665 50.5 76.6665C72.0312 76.6665 72.4687 76.6665 73.1146 76.4582C74.9271 75.9061 76.3021 74.5415 76.9271 72.7186C77.1562 72.0311 77.1562 72.0207 77.1562 64.6873C77.1562 57.354 77.1562 57.3436 76.9271 56.6561C76.2916 54.7811 74.8854 53.4373 73.0104 52.8748C72.4896 52.729 70.3854 52.7082 50.4583 52.7082L28.4687 52.7186L27.7812 52.9478ZM33.4583 60.2498C34.1041 60.5207 34.4896 60.8644 34.8021 61.4373C35.1979 62.1665 35.2604 62.8123 35.0104 63.5519L34.8125 64.1353L35.1458 64.5207C36.0729 65.5936 36.0208 67.2082 35.0208 68.3228C34.3021 69.1248 33.8958 69.2498 31.8541 69.2915C30.3541 69.3228 30.0937 69.3019 29.8541 69.1457C29.3854 68.8332 29.3437 68.4373 29.375 64.4478C29.4062 60.3644 29.4166 60.3228 30.1146 60.1144C30.6458 59.9478 32.9791 60.0415 33.4583 60.2498ZM63.3958 60.5728C64.5208 61.1353 64.8333 61.7498 64.3021 62.3748C63.8958 62.8644 63.6041 62.8748 62.7916 62.4478C61.6354 61.854 60.5 61.979 60.5 62.6978C60.5 62.979 60.5625 63.0207 61.625 63.4478C63.625 64.2394 64.1146 64.5832 64.5208 65.4686C65.3646 67.2707 63.8541 69.2811 61.6666 69.2811C60.7812 69.2811 60.2187 69.1457 59.4271 68.729C58.0521 67.9894 57.6666 66.8957 58.625 66.4061C59.0729 66.1769 59.2812 66.2082 59.8333 66.6457C60.5104 67.1769 60.8229 67.2915 61.5 67.2915C62.3541 67.2915 62.7916 67.0103 62.7916 66.4582C62.7916 66.1144 62.3958 65.8644 60.9896 65.3019C60.2396 64.9998 59.4791 64.6248 59.2916 64.4582C58.0521 63.3644 58.3437 61.3123 59.8646 60.4894C60.8958 59.9269 62.1354 59.9582 63.3958 60.5728ZM71.25 60.104C71.7291 60.2394 71.9583 60.5519 71.9583 61.0415C71.9583 61.7394 71.4583 62.0832 70.4271 62.0832H69.9791V65.3748V68.6665L69.6771 68.9686C69.2812 69.354 68.7604 69.3748 68.3437 69.0207L68.0521 68.7707L68.0208 65.4373L67.9896 62.1144L67.2916 62.0519C66.6875 62.0103 66.5625 61.9582 66.3125 61.6769C66.1354 61.479 66.0208 61.229 66.0208 61.0519C66.0208 60.6873 66.4479 60.1353 66.7812 60.0728C67.2708 59.979 70.8854 60.0103 71.25 60.104ZM43.4479 60.4894C44.3854 60.9373 45.2916 61.8332 45.7396 62.7811C46.0521 63.4478 46.0729 63.5519 46.0729 64.6873C46.0729 65.8228 46.0521 65.9269 45.7396 66.5936C45.2916 67.5415 44.3958 68.4373 43.4479 68.8853C42.7812 69.1978 42.6771 69.2186 41.5416 69.2186C40.4062 69.2186 40.3021 69.1978 39.6354 68.8853C38.6875 68.4373 37.7916 67.5415 37.3437 66.5936C37.0312 65.9269 37.0104 65.8228 37.0104 64.6873C37.0104 63.5519 37.0312 63.4478 37.3437 62.7811C37.7291 61.9686 38.6458 60.9894 39.3541 60.6248C40.1979 60.1873 40.6041 60.104 41.6979 60.1353C42.625 60.1561 42.8229 60.1978 43.4479 60.4894ZM54.1771 60.4894C55.1146 60.9373 56.0208 61.8332 56.4687 62.7811C56.7812 63.4478 56.8021 63.5519 56.8021 64.6873C56.8021 65.8228 56.7812 65.9269 56.4687 66.5936C56.0208 67.5415 55.125 68.4373 54.1771 68.8853C53.5104 69.1978 53.4062 69.2186 52.2708 69.2186C51.1354 69.2186 51.0312 69.1978 50.3646 68.8853C49.4166 68.4373 48.5208 67.5415 48.0729 66.5936C47.7604 65.9269 47.7396 65.8228 47.7396 64.6873C47.7396 63.5519 47.7604 63.4478 48.0729 62.7811C48.4583 61.9686 49.375 60.9894 50.0833 60.6248C50.9271 60.1873 51.3333 60.104 52.4271 60.1353C53.3541 60.1561 53.5521 60.1978 54.1771 60.4894Z" fill="#031317"/>
<path d="M31.4375 62.7604V63.4375H32.0521C32.7812 63.4375 33.2083 63.1771 33.2083 62.7188C33.2083 62.25 32.9271 62.0833 32.1354 62.0833H31.4375V62.7604Z" fill="#031317"/>
<path d="M31.4375 66.354V67.2915H32.375C33.2396 67.2915 33.3437 67.2707 33.5729 67.0311C33.7708 66.8436 33.8333 66.6665 33.8333 66.354C33.8333 66.0415 33.7708 65.8644 33.5729 65.6769C33.3437 65.4373 33.2396 65.4165 32.375 65.4165H31.4375V66.354Z" fill="#031317"/>
<path d="M40.3125 62.3543C39.3437 62.8439 38.8854 63.6877 38.9583 64.896C39.0104 65.8022 39.3958 66.4689 40.125 66.9272C40.5937 67.2085 40.7187 67.2397 41.5417 67.2397C42.3646 67.2397 42.4896 67.2085 42.9583 66.9272C43.2708 66.7293 43.5833 66.4168 43.7812 66.1043C44.0625 65.6356 44.0937 65.5106 44.0937 64.6877C44.0937 63.8647 44.0625 63.7397 43.7812 63.271C43.3021 62.5002 42.6458 62.146 41.6562 62.1043C40.9687 62.0731 40.7917 62.1043 40.3125 62.3543Z" fill="#031317"/>
<path d="M51.0416 62.3543C50.0729 62.8439 49.6145 63.6877 49.6874 64.896C49.7395 65.8022 50.1249 66.4689 50.8541 66.9272C51.3229 67.2085 51.4479 67.2397 52.2708 67.2397C53.0937 67.2397 53.2187 67.2085 53.6874 66.9272C53.9999 66.7293 54.3124 66.4168 54.5104 66.1043C54.7916 65.6356 54.8229 65.5106 54.8229 64.6877C54.8229 63.8647 54.7916 63.7397 54.5104 63.271C54.0312 62.5002 53.3749 62.146 52.3854 62.1043C51.6979 62.0731 51.5208 62.1043 51.0416 62.3543Z" fill="#031317"/>
</g>
<defs>
<clipPath id="clip0_1_138">
<rect width="53.3333" height="53.3333" fill="white" transform="translate(23.8333 23.3335)"/>
</clipPath>
</defs>
</svg>
