<svg width="84" height="85" viewBox="0 0 84 85" fill="none" xmlns="http://www.w3.org/2000/svg">
<path d="M24.0267 67.5339H23.3333C20.8187 67.5339 19.5627 67.5339 18.7813 66.7526C18 65.9766 18 64.7179 18 62.2033V59.2379C18 57.8566 18 57.1659 18.3547 56.5473C18.7093 55.9286 19.2453 55.6193 20.3173 54.9953C27.3733 50.8913 37.392 48.5819 44.0773 52.5686C44.5271 52.837 44.9271 53.1642 45.2773 53.5499C45.6362 53.9421 45.9126 54.4023 46.0904 54.9032C46.2682 55.4042 46.3436 55.9357 46.3123 56.4663C46.281 56.9969 46.1435 57.5159 45.908 57.9924C45.6725 58.4689 45.3438 58.8934 44.9413 59.2406C44.6207 59.545 44.2294 59.765 43.8027 59.8806C44.1227 59.8433 44.4293 59.8015 44.7227 59.7553C47.152 59.3686 49.192 58.0673 51.0587 56.6566L55.88 53.0166C56.7406 52.3921 57.7767 52.0558 58.84 52.0558C59.9033 52.0558 60.9394 52.3921 61.8 53.0166C63.328 54.1713 63.7973 56.0726 62.8293 57.6246C61.7013 59.4326 60.112 61.7446 58.5867 63.1579C57.0613 64.5713 54.784 65.8353 52.928 66.7313C50.8693 67.7259 48.5973 68.2966 46.2853 68.6726C41.5973 69.4299 36.712 69.3126 32.072 68.3579C29.4249 67.8131 26.7293 67.5352 24.0267 67.5339ZM24.896 17.3953C23.9173 18.3739 23.552 19.7233 23.416 21.8326C24.9792 21.8112 26.4723 21.1805 27.5775 20.0748C28.6826 18.9692 29.3126 17.4758 29.3333 15.9126C27.2267 16.0513 25.8747 16.4166 24.896 17.3953ZM53.7707 17.3953C52.792 16.4166 51.4427 16.0513 49.3333 15.9153C49.3547 17.4784 49.9854 18.9715 51.0911 20.0767C52.1968 21.1819 53.6901 21.8119 55.2533 21.8326C55.1147 19.7259 54.7493 18.3739 53.7707 17.3953ZM53.7707 35.6033C52.792 36.5819 51.4427 36.9473 49.3333 37.0833C49.3547 35.5201 49.9854 34.027 51.0911 32.9218C52.1968 31.8166 53.6901 31.1866 55.2533 31.1659C55.1147 33.2726 54.7493 34.6246 53.7707 35.6033ZM24.896 35.6033C25.8747 36.5819 27.224 36.9473 29.3333 37.0833C29.3119 35.5201 28.6813 34.027 27.5756 32.9218C26.4699 31.8166 24.9765 31.1866 23.4133 31.1659C23.552 33.2726 23.9173 34.6246 24.896 35.6033Z" fill="#4BCDE7"/>
<path fill-rule="evenodd" clip-rule="evenodd" d="M23.3333 25.8325C25.9855 25.8325 28.529 24.779 30.4044 22.9036C32.2797 21.0282 33.3333 18.4847 33.3333 15.8325H45.3333C45.3333 18.4847 46.3869 21.0282 48.2622 22.9036C50.1376 24.779 52.6811 25.8325 55.3333 25.8325V27.1659C52.6811 27.1659 50.1376 28.2194 48.2622 30.0948C46.3869 31.9701 45.3333 34.5137 45.3333 37.1659H33.3333C33.3333 34.5137 32.2797 31.9701 30.4044 30.0948C28.529 28.2194 25.9855 27.1659 23.3333 27.1659V25.8325ZM39.3333 29.1659C40.0406 29.1659 40.7188 28.8849 41.2189 28.3848C41.719 27.8847 42 27.2064 42 26.4992C42 25.7919 41.719 25.1137 41.2189 24.6136C40.7188 24.1135 40.0406 23.8325 39.3333 23.8325C38.6261 23.8325 37.9478 24.1135 37.4477 24.6136C36.9476 25.1137 36.6666 25.7919 36.6666 26.4992C36.6666 27.2064 36.9476 27.8847 37.4477 28.3848C37.9478 28.8849 38.6261 29.1659 39.3333 29.1659Z" fill="#4BCDE7"/>
</svg>
