<svg width="101" height="100" viewBox="0 0 101 100" fill="none" xmlns="http://www.w3.org/2000/svg">
<rect x="0.5" width="100" height="100" rx="25" fill="#4BCDE7"/>
<g clip-path="url(#clip0_1_154)">
<path d="M47.7084 23.4894C44.6043 23.9061 41.8543 24.7498 39.0939 26.1456C37.573 26.9061 35.2918 28.3019 35.2918 28.4686C35.2918 28.5102 35.5626 28.5206 35.8959 28.479C36.3959 28.4269 36.5834 28.4581 36.9168 28.6248C37.1355 28.7394 37.4897 28.8644 37.6876 28.9061C38.3126 29.0206 38.3959 29.0623 38.448 29.2602C38.4897 29.4269 38.6459 29.4686 39.3959 29.5311C39.8959 29.5727 40.323 29.5831 40.3439 29.5623C40.3751 29.5415 40.3334 29.3644 40.2709 29.1873C40.1459 28.854 40.1355 28.854 39.4272 28.854C38.8647 28.854 38.7293 28.8227 38.8126 28.7186C38.8751 28.6561 38.8959 28.4686 38.8647 28.3019C38.8126 28.0311 38.7814 28.0206 38.1772 28.0206H37.5522L38.2397 27.4998C38.9064 26.9894 38.948 26.979 39.6355 26.979H40.3439L40.698 27.4998L41.0522 28.0206H41.698C42.2709 28.0206 42.3647 27.9894 42.6355 27.7081C42.9689 27.3644 42.9897 27.354 43.2084 27.4998C43.3334 27.5831 43.2918 27.6665 42.948 28.0206C42.5626 28.4165 42.5105 28.4373 41.8855 28.4373C41.2397 28.4373 41.2293 28.4373 41.2293 28.7186C41.2293 29.4477 41.2814 29.479 42.2189 29.479C42.9689 29.479 43.0834 29.4581 43.1355 29.2915C43.1772 29.0936 43.5939 28.9581 44.0939 28.9581C44.2814 28.9581 44.3543 28.8852 44.4064 28.6456C44.4897 28.2602 44.4064 28.1248 44.0939 28.1248C43.8751 28.1248 43.8543 28.0936 43.9272 27.8852C44.0522 27.5415 44.4168 27.4373 45.323 27.479L46.1459 27.5206L45.7189 27.8852C45.0105 28.4894 45.1668 29.0936 46.0522 29.2081L46.5626 29.2706L46.4897 28.6561L46.4168 28.0311L46.9376 27.7706C47.2501 27.6144 47.7814 27.4686 48.2605 27.4061L49.073 27.3123L50.3022 27.8436L51.5418 28.3852V28.8748C51.5418 29.354 51.5522 29.3644 51.9064 29.4373C52.323 29.5102 52.323 29.4998 52.1147 29.8956C51.9689 30.1873 51.9064 30.2081 51.3959 30.2081C50.8439 30.2081 50.8334 30.2081 50.6668 30.6248C50.573 30.854 50.4793 31.0415 50.4584 31.0415C50.3439 31.0415 48.2918 30.5415 48.2605 30.4998C48.2397 30.479 48.6459 30.229 49.1668 29.9581L50.1147 29.4477L49.7084 29.104C49.2605 28.7186 49.198 28.7081 48.1564 28.854C47.5418 28.9477 47.3751 29.0206 47.0626 29.3227C46.7709 29.604 46.6043 29.6873 46.3022 29.6873C45.9584 29.6873 45.9168 29.7186 45.9168 29.9477C45.9168 30.0831 45.9897 30.2394 46.0834 30.2915C46.2189 30.3644 46.1876 30.3956 45.9168 30.4477C45.7084 30.4998 45.5626 30.5936 45.5314 30.729C45.5001 30.8644 45.3855 30.9373 45.2397 30.9373C45.0001 30.9373 44.8751 30.7602 44.8751 30.4061C44.8751 30.1561 44.6772 30.1561 43.9793 30.3956C43.3855 30.604 41.2293 31.854 41.2293 31.9894C41.2293 32.0415 41.2814 32.2811 41.3543 32.5311C41.5105 33.1144 41.9272 33.3956 42.7814 33.4998L43.4168 33.5727V34.3331C43.4168 34.9998 43.4376 35.104 43.6043 35.104C44.0626 35.104 44.2293 34.9686 44.448 34.4269C44.6772 33.8644 44.698 33.854 45.4064 33.6248L46.1251 33.3956V32.4894V31.5831L46.4793 31.3123C46.9064 30.9894 46.8959 30.9894 47.9272 31.2186L48.7397 31.4061L48.6772 31.9998L48.6043 32.604H48.9272C49.1147 32.604 49.5314 32.4686 49.8647 32.2915L50.4793 31.9894L50.5522 32.7602L50.6251 33.5311L51.0834 33.8019C51.5105 34.0519 51.5418 34.0936 51.5418 34.5311C51.5418 34.9686 51.5314 34.9894 51.1043 35.1248C50.4064 35.3644 50.448 35.6248 51.2293 35.9581C51.7605 36.1977 51.8543 36.2706 51.8543 36.4998C51.8543 36.8331 51.7397 36.8436 50.8022 36.5623C50.198 36.3748 50.0834 36.3123 50.0834 36.1144C50.0834 35.9894 50.1772 35.8227 50.2918 35.7498C50.5834 35.5727 50.5626 35.1456 50.2709 35.0623C49.9168 34.9686 49.8959 34.979 49.823 35.1977C49.7814 35.3436 49.6147 35.4269 49.2189 35.4894C48.698 35.5727 48.6668 35.5727 48.5001 35.2915C48.3543 35.0519 48.2397 34.9998 47.9168 34.9998C47.448 34.9998 47.2709 35.1456 47.2709 35.5415C47.2709 35.7706 47.3334 35.8436 47.5626 35.8956C47.9793 35.9998 48.0105 36.0311 47.8959 36.2602C47.7918 36.4477 47.7605 36.4477 47.5522 36.3019C47.4272 36.2186 47.2605 36.1456 47.1668 36.1456C46.9897 36.1456 45.9168 37.1769 45.9168 37.3436C45.9168 37.4061 45.6043 37.604 45.2084 37.8019C44.7397 38.0519 44.198 38.4686 43.5522 39.0936C42.7397 39.8852 42.5939 40.0831 42.5626 40.4061C42.5314 40.7498 42.4584 40.8331 41.698 41.3331C41.2397 41.6352 40.6876 42.0519 40.4793 42.2602C40.0834 42.6456 40.0834 42.6561 40.0834 43.4581V44.2706L39.6147 44.0415C39.1564 43.8123 39.1459 43.8019 39.1459 43.3123V42.8123H37.5314H35.9168L35.0522 43.2811C34.2293 43.729 34.1876 43.7602 33.8022 44.4998C33.2918 45.5102 33.2189 46.1456 33.5418 46.7186C33.7814 47.1144 33.8126 47.1352 34.448 47.2081L35.1043 47.2811L36.0314 46.6561C36.5418 46.3123 37.0105 46.0623 37.0626 46.0936C37.2397 46.1977 37.1772 46.5415 36.9064 47.0831C36.7605 47.3644 36.6459 47.6456 36.6459 47.6977C36.6459 47.7498 36.8959 47.8227 37.198 47.8644C38.198 48.0102 38.1668 47.9581 38.2397 49.2186C38.2709 49.8331 38.323 50.354 38.3439 50.3852C38.3751 50.4061 38.8647 50.5102 39.448 50.6144L40.5001 50.8123L41.1459 50.0623C41.5001 49.6561 41.8022 49.3019 41.823 49.2811C41.8439 49.2498 42.9689 49.4373 43.3126 49.5415C43.3959 49.5623 43.5834 49.7498 43.7189 49.9477L43.9689 50.3123H44.8334C45.6355 50.3123 45.7084 50.2915 45.7084 50.104C45.7084 49.854 45.7189 49.854 46.1564 50.0623C46.3855 50.1769 46.6564 50.479 46.9897 50.9998L47.4689 51.7706H48.3126H49.1459L49.4584 52.3123C49.6459 52.6561 49.7709 53.0206 49.7814 53.2811C49.8022 54.104 49.8647 54.1769 50.8126 54.5519C51.6251 54.8644 51.7918 54.8956 52.8647 54.8956H54.0314L54.4272 55.4894C54.7605 55.9998 54.8959 56.104 55.3022 56.229L55.7918 56.3644L55.6876 56.7915C55.6355 57.0415 55.3855 57.4894 55.0939 57.854C54.823 58.2081 54.5626 58.5415 54.5314 58.6144C54.4689 58.7186 54.1459 61.2706 54.1459 61.6873C54.1459 61.7811 53.8959 62.0519 53.6043 62.2915L53.0522 62.729L52.3126 62.6665L51.573 62.6144L51.2918 63.1144C51.1459 63.3956 51.0418 63.6873 51.073 63.7602C51.0939 63.8436 51.1876 64.1977 51.2709 64.5623L51.4168 65.2081L50.5834 66.2811C50.1251 66.8644 49.6459 67.5519 49.5209 67.8019C49.3334 68.1873 49.1876 68.3123 48.5209 68.6456C48.0834 68.8644 47.5001 69.0727 47.2189 69.1144C46.6876 69.1977 46.5418 69.2915 46.5418 69.604C46.5418 69.729 46.6564 69.8019 46.9064 69.854C47.3751 69.9373 47.3751 70.1456 46.8959 70.6352L46.5209 71.0206L46.7084 71.2915C46.8647 71.4894 47.0001 71.5519 47.3022 71.5623C47.6459 71.5623 47.6876 71.5936 47.6876 71.8227C47.6876 71.9581 47.6147 72.3331 47.5314 72.6561L47.3855 73.2394L47.7605 73.5727C47.9689 73.7602 48.2293 73.9686 48.3334 74.0415C48.448 74.1248 48.5209 74.2811 48.5001 74.4061C48.4689 74.6144 48.3959 74.6352 47.7189 74.6665L46.9793 74.6977L46.1564 73.979C45.5001 73.3852 45.2293 73.0519 44.7397 72.1873L44.1355 71.1352L44.2189 70.0831L44.3126 69.0415L43.8543 68.4269L43.3959 67.8123L43.5626 66.8331C43.7709 65.604 43.7709 65.6456 43.5001 65.604C43.2605 65.5727 43.2605 65.5727 43.2293 63.2602L43.2084 60.9477L42.3959 60.3852C41.9584 60.0727 41.3959 59.7602 41.1564 59.6977C40.7605 59.5936 40.7189 59.5519 40.6564 59.1456C40.5939 58.8123 40.3543 58.4373 39.5939 57.479L38.6043 56.2498L38.7189 55.4581C38.7814 55.0311 38.8334 54.4998 38.8334 54.2811C38.8334 53.8852 38.9793 53.7394 40.1043 53.0102C40.1668 52.9686 40.1772 52.5936 40.1355 52.0519L40.0626 51.1665L39.0314 51.0936L38.0001 51.0206L37.198 50.1144C36.3647 49.1665 36.2918 49.1352 34.8334 48.8123C34.573 48.7498 34.5418 48.6977 34.5834 48.4269C34.6355 48.0831 34.6147 48.0727 34.0105 47.979C33.6876 47.9373 33.6251 47.9581 33.6251 48.1144C33.6251 48.3019 33.5522 48.2915 32.5001 48.0311L31.3855 47.7498L30.948 47.1248C30.448 46.4373 30.4272 46.3436 30.6668 45.9477C30.8334 45.6665 30.823 45.6561 30.0834 44.5623C29.3855 43.5519 29.3126 43.3852 29.2084 42.6873L29.0939 41.9269L28.7397 41.8956L28.3855 41.8644L28.448 42.4165C28.4897 42.7186 28.5209 43.0623 28.5209 43.1769C28.5209 43.3019 28.7605 43.7602 29.0418 44.2186C29.5209 44.979 29.6772 45.4373 29.4793 45.5519C29.4376 45.5831 29.2501 45.5727 29.0626 45.5519C28.7709 45.4998 28.6668 45.3852 28.2084 44.6144L27.6876 43.729V42.6456V41.5623L27.1147 41.3019L26.5418 41.0519L26.5314 40.2394V39.4269L26.3126 39.8956C25.5001 41.6977 24.6772 45.0831 24.448 47.5415C24.2918 49.1977 24.3855 52.4373 24.6147 53.9581C25.9376 62.4998 31.1459 69.7602 38.7918 73.7186C41.8022 75.2811 44.9064 76.2081 48.2814 76.5727C49.7918 76.729 53.7189 76.6352 55.1355 76.4061C59.948 75.6352 64.4376 73.604 68.1147 70.5311C69.1043 69.7081 71.7501 67.0311 71.7501 66.8644C71.7501 66.8123 71.5626 66.7706 71.3334 66.7706H70.9168V65.8956V65.0311L70.3959 64.3123L69.8751 63.5936V62.5623V61.5311L69.4584 61.0831C68.8855 60.4581 68.8959 60.1352 69.5418 58.9477L70.0314 58.0206L69.7709 57.5311C69.6251 57.2498 69.2084 56.4998 68.8334 55.854L68.1772 54.6769L68.2709 53.5415L68.3647 52.4165L68.0001 52.354C67.8022 52.3227 67.4584 52.2915 67.2501 52.2915C66.948 52.2915 66.7605 52.2081 66.448 51.9269C66.0939 51.604 65.9793 51.5623 65.4689 51.5623C65.0001 51.5623 64.8334 51.6144 64.5834 51.8227C64.3022 52.0623 64.1876 52.0831 63.2709 52.0831C62.6772 52.0831 62.2709 52.1248 62.2709 52.1873C62.2709 52.2394 62.0209 52.2915 61.7189 52.2915H61.1564L59.8959 50.8436L58.6251 49.3852V48.2915C58.6251 47.4269 58.6564 47.1873 58.7709 47.1873C58.9793 47.1873 59.1043 46.979 59.1876 46.5311C59.2605 46.1561 59.2501 46.1456 58.948 46.1456C58.6772 46.1456 58.6251 46.0936 58.5314 45.7602C58.4689 45.5519 58.448 45.3436 58.4793 45.3019C58.5001 45.2602 59.1564 44.7602 59.9272 44.2081L61.3334 43.1977V42.4373V41.6873L62.0001 41.3123C62.6355 40.9581 62.7189 40.9373 63.6355 40.9373C64.4584 40.9373 64.6564 40.9061 65.0209 40.6873C65.3543 40.4894 65.6668 40.4269 66.4897 40.3748C67.0626 40.3331 67.7293 40.2811 67.9793 40.2394L68.4168 40.1873V40.9686V41.7498L69.5314 42.0206C70.1564 42.1769 70.8022 42.3956 70.9793 42.5102C71.1564 42.6144 71.4064 42.7081 71.5314 42.7081C71.7189 42.7081 71.7501 42.6456 71.7501 42.3019C71.7501 41.8331 71.8439 41.7706 72.6043 41.7706C73.0522 41.7706 73.198 41.8227 73.7293 42.2394L74.3334 42.7081H75.448C76.3439 42.7081 76.5626 42.6769 76.6147 42.5519C76.6459 42.4581 76.5105 41.9373 76.3126 41.3748L75.948 40.3644L75.2084 40.3331C74.4897 40.3019 74.4584 40.2915 74.1668 39.9165C73.948 39.6456 73.8439 39.3644 73.7918 38.9373L73.7189 38.3331L73.3126 38.5415C72.9689 38.7186 72.9064 38.8123 72.7918 39.2915C72.5939 40.1456 72.573 40.1561 72.0834 39.6561C71.7084 39.2811 71.6355 39.1144 71.5626 38.6248C71.4897 38.0727 71.4584 38.0206 70.8022 37.4581C70.1355 36.8956 70.0939 36.8748 69.5105 36.8748C69.0418 36.8748 68.9272 36.9061 68.9689 37.0206C69.0001 37.104 69.0834 37.354 69.1564 37.5831C69.2605 37.9477 69.3647 38.0519 69.8647 38.3227C70.6251 38.729 70.9064 38.9581 70.7397 39.0206C70.6564 39.0519 70.6043 39.2706 70.6043 39.5206C70.6043 39.9061 70.573 39.9686 70.3022 40.0727C69.9168 40.2186 69.5314 40.1456 69.3751 39.8852C69.2605 39.7081 69.2814 39.6873 69.6459 39.6873C70.0314 39.6873 70.2918 39.5415 70.2918 39.3227C70.2918 39.2706 69.823 38.9165 69.2501 38.5415C68.6772 38.1665 68.2084 37.7915 68.2084 37.7081C68.2084 37.6248 68.1668 37.4894 68.1147 37.4061C68.0314 37.2811 67.9376 37.3227 67.5939 37.6352C67.2293 37.9581 67.1251 38.0102 66.8334 37.9477C66.6459 37.9165 66.448 37.8852 66.3959 37.8748C66.2605 37.854 65.0001 39.4894 64.8751 39.854C64.7814 40.1248 64.6876 40.1977 64.3751 40.2498C63.6043 40.3748 62.7918 40.3227 62.3855 40.104C61.9897 39.9061 61.9793 39.8852 61.9064 39.1769C61.8022 38.1561 61.9376 37.9061 62.6876 37.7394C63.1459 37.6456 63.3855 37.6456 63.9376 37.7602C64.3126 37.8436 64.6459 37.8748 64.6772 37.8331C64.7189 37.7915 64.7814 37.5831 64.8126 37.3748C64.8751 37.0311 64.8543 36.9894 64.6459 36.9581C64.4272 36.9269 64.4064 36.8748 64.4272 36.4165C64.4376 36.1352 64.5001 35.8748 64.573 35.8227C64.6459 35.7811 64.9689 35.7186 65.2814 35.6769C65.8647 35.604 65.8647 35.604 66.3543 34.8956C66.8022 34.2498 66.8751 34.1873 67.2918 34.1352C67.5418 34.104 68.0418 34.104 68.4064 34.1352L69.073 34.1977L69.0105 33.7915C68.9689 33.5727 68.9376 33.3123 68.9376 33.229C68.9272 32.8436 68.7814 32.8019 68.2605 33.0206C67.9897 33.1352 67.7501 33.2186 67.7397 33.2081C67.7293 33.1873 67.6459 32.9894 67.5626 32.7602C67.4376 32.4477 67.323 32.3331 67.0834 32.2706C66.8647 32.2081 66.7501 32.104 66.7084 31.9165C66.6043 31.5311 67.0209 31.1248 67.7814 30.8331C68.198 30.6769 68.4376 30.5206 68.5626 30.3019C68.6668 30.1248 68.7293 29.979 68.7084 29.9581C68.698 29.9477 68.2918 29.6248 67.8126 29.229C66.5105 28.1769 64.2605 26.729 62.7397 25.9894C60.3855 24.8436 58.0522 24.0936 55.3543 23.6248C53.7293 23.3436 49.3751 23.2706 47.7084 23.4894ZM64.5105 32.8748C64.6564 33.5206 65.1043 34.2394 65.5105 34.4581C65.8647 34.6665 65.8647 34.6665 65.6043 34.979C65.4376 35.1769 65.2709 35.229 64.5626 35.2811L63.7189 35.3436L63.7501 34.9373C63.7814 34.5831 63.823 34.5206 64.1251 34.4269C64.4272 34.3436 64.4584 34.2915 64.4064 34.0623C64.3647 33.9165 64.3334 33.8019 64.323 33.7915C63.9689 33.604 63.3126 33.0831 63.3126 32.9894C63.323 32.6456 63.8959 32.2706 64.2918 32.3436C64.3543 32.3436 64.448 32.5831 64.5105 32.8748ZM63.3751 33.604C63.7605 33.7081 63.573 34.1665 62.9897 34.5519C62.3959 34.9581 61.9584 35.0102 61.9584 34.6769C61.9584 34.3956 62.3855 33.6665 62.5834 33.604C62.823 33.5415 63.1355 33.5415 63.3751 33.604ZM49.1876 36.729C49.4168 36.8227 49.3959 36.979 49.1564 36.979C49.0314 36.979 48.8959 37.0936 48.8126 37.2602C48.5939 37.729 48.0105 37.6873 48.0001 37.2081C48.0001 37.1352 48.1459 37.0831 48.3647 37.0831C48.6147 37.0831 48.7501 37.0206 48.8334 36.8748C48.9584 36.6456 48.9584 36.6456 49.1876 36.729ZM47.3751 37.5102C47.3751 37.6561 47.3022 37.7081 47.1147 37.7081C46.8439 37.7081 46.7709 37.5206 46.9689 37.3227C47.1355 37.1561 47.3751 37.2706 47.3751 37.5102Z" fill="#031317"/>
</g>
<defs>
<clipPath id="clip0_1_154">
<rect width="53.3333" height="53.3333" fill="white" transform="translate(23.8334 23.3335)"/>
</clipPath>
</defs>
</svg>
