<svg width="84" height="85" viewBox="0 0 84 85" fill="none" xmlns="http://www.w3.org/2000/svg">
<path d="M23.3333 21.1667C21.9188 21.1667 20.5623 21.7287 19.5621 22.7288C18.5619 23.729 18 25.0856 18 26.5001V50.5001H66V26.5001C66 25.0856 65.4381 23.729 64.4379 22.7288C63.4377 21.7287 62.0811 21.1667 60.6666 21.1667H23.3333ZM18 53.1667C17.2927 53.1667 16.6145 53.4477 16.1144 53.9478C15.6143 54.4479 15.3333 55.1262 15.3333 55.8334C15.3333 57.9551 16.1762 59.99 17.6765 61.4903C19.1767 62.9906 21.2116 63.8334 23.3333 63.8334H60.6666C62.7884 63.8334 64.8232 62.9906 66.3235 61.4903C67.8238 59.99 68.6666 57.9551 68.6666 55.8334C68.6666 55.1262 68.3857 54.4479 67.8856 53.9478C67.3855 53.4477 66.7072 53.1667 66 53.1667H18Z" fill="#4BCDE7"/>
</svg>
