<svg width="52" height="48" viewBox="0 0 52 48" fill="none" xmlns="http://www.w3.org/2000/svg">
<rect x="3.05176e-05" width="51.6491" height="48" rx="3.11417" fill="#CAF0F8"/>
<path d="M6.82951 35.386V26.1776H10.8969C11.3937 26.1776 11.8485 26.2449 12.2611 26.3797C12.6737 26.5144 13.0232 26.7165 13.3095 26.986C13.6042 27.247 13.8316 27.567 13.9916 27.946C14.1516 28.3249 14.2316 28.7586 14.2316 29.247C14.2316 29.8618 14.1011 30.4049 13.84 30.8765C13.579 31.3397 13.2 31.7018 12.7032 31.9628C12.2064 32.2239 11.6042 32.3544 10.8969 32.3544H8.90109V30.6112H10.4927C10.7369 30.6112 10.9642 30.5776 11.1748 30.5102C11.3937 30.4428 11.5706 30.3165 11.7053 30.1312C11.8485 29.946 11.92 29.6807 11.92 29.3354C11.92 28.9902 11.8485 28.7291 11.7053 28.5523C11.5706 28.3754 11.3937 28.2533 11.1748 28.186C10.9642 28.1186 10.7369 28.0849 10.4927 28.0849H8.8253L9.09056 27.807V35.386H6.82951ZM18.0298 35.5123C17.6256 35.5123 17.2592 35.4407 16.9308 35.2976C16.6024 35.146 16.3161 34.9228 16.0719 34.6281C15.8361 34.3333 15.655 33.967 15.5287 33.5291C15.4024 33.0828 15.3392 32.5649 15.3392 31.9754C15.3392 31.1839 15.4487 30.527 15.6677 30.0049C15.895 29.4744 16.2108 29.0828 16.615 28.8302C17.0192 28.5691 17.4908 28.4386 18.0298 28.4386C18.375 28.4386 18.6824 28.4891 18.9519 28.5902C19.2298 28.6912 19.4656 28.8344 19.6592 29.0197C19.8614 29.2049 20.0171 29.4239 20.1266 29.6765H20.2403L20.3161 28.5649H22.375V35.386H20.2403V34.2744H20.1266C19.9666 34.6449 19.7056 34.9439 19.3435 35.1712C18.9814 35.3986 18.5435 35.5123 18.0298 35.5123ZM18.8635 33.7944C19.1835 33.7944 19.4403 33.7228 19.634 33.5797C19.8277 33.4281 19.9708 33.2386 20.0635 33.0112C20.1645 32.7754 20.215 32.5312 20.215 32.2786V31.6723C20.215 31.4112 20.1645 31.167 20.0635 30.9397C19.9708 30.7039 19.8277 30.5144 19.634 30.3712C19.4403 30.2281 19.1835 30.1565 18.8635 30.1565C18.594 30.1565 18.3582 30.2197 18.1561 30.346C17.954 30.4723 17.794 30.6702 17.6761 30.9397C17.5666 31.2007 17.5119 31.546 17.5119 31.9754C17.5119 32.3965 17.5666 32.7418 17.6761 33.0112C17.794 33.2807 17.954 33.4786 18.1561 33.6049C18.3582 33.7312 18.594 33.7944 18.8635 33.7944ZM24.3402 35.386V28.5649H26.2729L26.3613 29.6007H26.4371C26.5887 29.1712 26.8244 28.8765 27.1444 28.7165C27.4729 28.5565 27.8434 28.4765 28.256 28.4765C28.3318 28.4765 28.3992 28.4765 28.4581 28.4765C28.5255 28.4765 28.5887 28.4765 28.6476 28.4765V30.4849C28.5971 30.4849 28.5339 30.4849 28.4581 30.4849C28.3908 30.4765 28.3108 30.4723 28.2181 30.4723C27.7887 30.4723 27.4476 30.5354 27.195 30.6618C26.9423 30.7797 26.7613 30.9523 26.6518 31.1797C26.5423 31.3986 26.4834 31.6723 26.475 32.0007V35.386H24.3402ZM30.0264 35.386V26.1776H32.199V31.1923L32.7422 30.5354L34.5106 28.5649H37.138L34.5106 31.2807L37.1633 35.386H34.6496L33.4243 33.4154L33.0201 32.6954L32.199 33.5165V35.386H30.0264ZM40.2692 35.5123C39.865 35.5123 39.4987 35.4407 39.1703 35.2976C38.8419 35.146 38.5556 34.9228 38.3114 34.6281C38.0756 34.3333 37.8945 33.967 37.7682 33.5291C37.6419 33.0828 37.5787 32.5649 37.5787 31.9754C37.5787 31.1839 37.6882 30.527 37.9071 30.0049C38.1345 29.4744 38.4503 29.0828 38.8545 28.8302C39.2587 28.5691 39.7303 28.4386 40.2692 28.4386C40.6145 28.4386 40.9219 28.4891 41.1914 28.5902C41.4692 28.6912 41.705 28.8344 41.8987 29.0197C42.1008 29.2049 42.2566 29.4239 42.3661 29.6765H42.4798L42.5556 28.5649H44.6145V35.386H42.4798V34.2744H42.3661C42.2061 34.6449 41.945 34.9439 41.5829 35.1712C41.2208 35.3986 40.7829 35.5123 40.2692 35.5123ZM41.1029 33.7944C41.4229 33.7944 41.6798 33.7228 41.8735 33.5797C42.0671 33.4281 42.2103 33.2386 42.3029 33.0112C42.404 32.7754 42.4545 32.5312 42.4545 32.2786V31.6723C42.4545 31.4112 42.404 31.167 42.3029 30.9397C42.2103 30.7039 42.0671 30.5144 41.8735 30.3712C41.6798 30.2281 41.4229 30.1565 41.1029 30.1565C40.8335 30.1565 40.5977 30.2197 40.3956 30.346C40.1935 30.4723 40.0335 30.6702 39.9156 30.9397C39.8061 31.2007 39.7514 31.546 39.7514 31.9754C39.7514 32.3965 39.8061 32.7418 39.9156 33.0112C40.0335 33.2807 40.1935 33.4786 40.3956 33.6049C40.5977 33.7312 40.8335 33.7944 41.1029 33.7944Z" fill="#023E8A"/>
<path d="M7.67033 40.8947V38.4081H6.77219V38.0355H9.00382V38.4081H8.09783V40.8947H7.67033ZM11.0283 40.93C10.827 40.93 10.6531 40.8868 10.5067 40.8005C10.3629 40.7116 10.2531 40.5874 10.1772 40.4279C10.1014 40.2685 10.0635 40.0815 10.0635 39.8671C10.0635 39.6475 10.1014 39.4566 10.1772 39.2945C10.2531 39.1324 10.3616 39.0082 10.5028 38.9219C10.6466 38.833 10.8178 38.7885 11.0165 38.7885C11.2336 38.7885 11.4127 38.8382 11.5539 38.9376C11.6977 39.0343 11.801 39.169 11.8637 39.3415C11.9265 39.5141 11.95 39.7128 11.9343 39.9377H10.4596C10.4622 40.0893 10.4871 40.2162 10.5341 40.3181C10.5812 40.4175 10.6466 40.4933 10.7302 40.5456C10.8165 40.5953 10.9159 40.6201 11.0283 40.6201C11.1669 40.6201 11.2806 40.5874 11.3695 40.5221C11.4584 40.4541 11.5146 40.3665 11.5382 40.2593H11.9225C11.9042 40.3979 11.8546 40.5182 11.7735 40.6201C11.6924 40.7195 11.5879 40.7966 11.4597 40.8515C11.3316 40.9038 11.1878 40.93 11.0283 40.93ZM10.4635 39.7141L10.4243 39.6632H11.5774L11.5382 39.7181C11.5408 39.5743 11.5199 39.4566 11.4754 39.3651C11.4336 39.2736 11.3721 39.2069 11.2911 39.1651C11.2126 39.1206 11.1211 39.0984 11.0165 39.0984C10.9067 39.0984 10.8113 39.1219 10.7302 39.169C10.6492 39.216 10.5851 39.2853 10.5381 39.3768C10.491 39.4684 10.4662 39.5808 10.4635 39.7141ZM14.5173 40.93C14.3657 40.93 14.2271 40.9051 14.1016 40.8554C13.9787 40.8032 13.8728 40.7299 13.7839 40.6358C13.6976 40.5417 13.6296 40.4293 13.58 40.2985C13.5329 40.1678 13.5094 40.0214 13.5094 39.8593C13.5094 39.6449 13.5512 39.4579 13.6349 39.2984C13.7185 39.1363 13.8375 39.0108 13.9918 38.9219C14.146 38.833 14.3264 38.7885 14.533 38.7885C14.7003 38.7885 14.8494 38.8199 14.9801 38.8827C15.1135 38.9454 15.2194 39.033 15.2978 39.1454C15.3789 39.2579 15.4246 39.3886 15.4351 39.5377H15.0429C15.0272 39.4461 14.9945 39.3703 14.9448 39.3102C14.8951 39.25 14.8337 39.2043 14.7605 39.1729C14.6899 39.1415 14.6101 39.1258 14.5212 39.1258C14.3931 39.1258 14.2846 39.1572 14.1957 39.22C14.1068 39.2801 14.0388 39.3651 13.9918 39.4749C13.9447 39.5847 13.9212 39.7141 13.9212 39.8632C13.9212 40.0174 13.946 40.1495 13.9957 40.2593C14.0454 40.3665 14.1147 40.4489 14.2036 40.5064C14.2925 40.5639 14.397 40.5927 14.5173 40.5927C14.6193 40.5927 14.7082 40.5744 14.784 40.5378C14.8598 40.5012 14.92 40.4502 14.9644 40.3848C15.0115 40.3168 15.0403 40.2397 15.0507 40.1534H15.4429C15.4325 40.3103 15.3867 40.4476 15.3056 40.5652C15.2246 40.6803 15.1161 40.7705 14.9801 40.8358C14.8442 40.8986 14.6899 40.93 14.5173 40.93ZM17.1079 40.8947V38.0355H17.5079V39.2317H17.5315C17.5916 39.0853 17.6857 38.9755 17.8139 38.9023C17.942 38.8265 18.0819 38.7885 18.2335 38.7885C18.3407 38.7885 18.4388 38.8042 18.5277 38.8356C18.6192 38.867 18.6976 38.918 18.763 38.9886C18.831 39.0566 18.8833 39.1468 18.9199 39.2592C18.9565 39.369 18.9748 39.5037 18.9748 39.6632V40.8947H18.5708V39.7455C18.5708 39.6043 18.5538 39.488 18.5198 39.3965C18.4858 39.3023 18.4335 39.233 18.3629 39.1886C18.2923 39.1441 18.2008 39.1219 18.0884 39.1219C17.9707 39.1219 17.8675 39.1507 17.7786 39.2082C17.6923 39.2657 17.6256 39.3429 17.5785 39.4396C17.5315 39.5337 17.5079 39.6409 17.5079 39.7612V40.8947H17.1079ZM20.7759 40.8947V38.8199H21.1603L21.1759 39.2317H21.1995C21.2596 39.0853 21.3537 38.9755 21.4819 38.9023C21.61 38.8265 21.7499 38.7885 21.9015 38.7885C22.0087 38.7885 22.1068 38.8042 22.1957 38.8356C22.2872 38.867 22.3656 38.918 22.431 38.9886C22.499 39.0566 22.5513 39.1468 22.5879 39.2592C22.6245 39.369 22.6428 39.5037 22.6428 39.6632V40.8947H22.2388V39.7455C22.2388 39.6043 22.2218 39.488 22.1878 39.3965C22.1538 39.3023 22.1015 39.233 22.0309 39.1886C21.9604 39.1441 21.8688 39.1219 21.7564 39.1219C21.6387 39.1219 21.5355 39.1507 21.4466 39.2082C21.3603 39.2657 21.2936 39.3429 21.2465 39.4396C21.1995 39.5337 21.1759 39.6409 21.1759 39.7612V40.8947H20.7759ZM25.3185 40.93C25.1669 40.93 25.0283 40.9051 24.9028 40.8554C24.7799 40.8058 24.674 40.7339 24.5851 40.6397C24.4962 40.5456 24.4269 40.4332 24.3772 40.3024C24.3276 40.1717 24.3027 40.0253 24.3027 39.8632C24.3027 39.6488 24.3432 39.4618 24.4243 39.3023C24.508 39.1402 24.6256 39.0147 24.7773 38.9258C24.9315 38.8343 25.112 38.7885 25.3185 38.7885C25.4702 38.7885 25.6074 38.8134 25.7303 38.8631C25.8558 38.9101 25.963 38.9807 26.0519 39.0749C26.1408 39.169 26.2088 39.2827 26.2559 39.4161C26.3056 39.5468 26.3304 39.6945 26.3304 39.8593C26.3304 40.071 26.2899 40.258 26.2088 40.4201C26.1278 40.5796 26.0114 40.7051 25.8598 40.7966C25.7081 40.8855 25.5277 40.93 25.3185 40.93ZM25.3185 40.5927C25.4388 40.5927 25.5434 40.5652 25.6323 40.5103C25.7238 40.4528 25.7944 40.3691 25.8441 40.2593C25.8937 40.1495 25.9186 40.0161 25.9186 39.8593C25.9186 39.7416 25.9042 39.6383 25.8754 39.5494C25.8493 39.4579 25.8101 39.3808 25.7578 39.318C25.7055 39.2527 25.6427 39.2043 25.5695 39.1729C25.4963 39.1389 25.4126 39.1219 25.3185 39.1219C25.1982 39.1219 25.0923 39.1507 25.0008 39.2082C24.9119 39.2657 24.8413 39.3494 24.789 39.4592C24.7394 39.5664 24.7145 39.7011 24.7145 39.8632C24.7145 39.9782 24.7276 40.0815 24.7537 40.173C24.7825 40.2619 24.823 40.3377 24.8753 40.4005C24.9302 40.4632 24.9943 40.5116 25.0675 40.5456C25.1433 40.577 25.227 40.5927 25.3185 40.5927ZM28.0085 40.8947V38.0355H28.4125V40.8947H28.0085ZM31.1033 40.93C30.9517 40.93 30.8131 40.9051 30.6876 40.8554C30.5647 40.8058 30.4588 40.7339 30.3699 40.6397C30.281 40.5456 30.2117 40.4332 30.1621 40.3024C30.1124 40.1717 30.0875 40.0253 30.0875 39.8632C30.0875 39.6488 30.1281 39.4618 30.2091 39.3023C30.2928 39.1402 30.4104 39.0147 30.5621 38.9258C30.7164 38.8343 30.8968 38.7885 31.1033 38.7885C31.255 38.7885 31.3923 38.8134 31.5152 38.8631C31.6407 38.9101 31.7479 38.9807 31.8368 39.0749C31.9257 39.169 31.9936 39.2827 32.0407 39.4161C32.0904 39.5468 32.1152 39.6945 32.1152 39.8593C32.1152 40.071 32.0747 40.258 31.9936 40.4201C31.9126 40.5796 31.7962 40.7051 31.6446 40.7966C31.4929 40.8855 31.3125 40.93 31.1033 40.93ZM31.1033 40.5927C31.2236 40.5927 31.3282 40.5652 31.4171 40.5103C31.5086 40.4528 31.5792 40.3691 31.6289 40.2593C31.6786 40.1495 31.7034 40.0161 31.7034 39.8593C31.7034 39.7416 31.689 39.6383 31.6603 39.5494C31.6341 39.4579 31.5949 39.3808 31.5426 39.318C31.4903 39.2527 31.4276 39.2043 31.3543 39.1729C31.2811 39.1389 31.1975 39.1219 31.1033 39.1219C30.9831 39.1219 30.8772 39.1507 30.7857 39.2082C30.6968 39.2657 30.6262 39.3494 30.5739 39.4592C30.5242 39.5664 30.4993 39.7011 30.4993 39.8632C30.4993 39.9782 30.5124 40.0815 30.5386 40.173C30.5673 40.2619 30.6079 40.3377 30.6602 40.4005C30.7151 40.4632 30.7791 40.5116 30.8523 40.5456C30.9282 40.577 31.0118 40.5927 31.1033 40.5927ZM34.6513 41.5889C34.4866 41.5889 34.3428 41.564 34.2199 41.5143C34.097 41.4673 33.999 41.3993 33.9258 41.3104C33.8525 41.2215 33.8081 41.1156 33.7924 40.9927H34.1846C34.1951 41.0529 34.2212 41.1052 34.263 41.1496C34.3049 41.1967 34.3585 41.232 34.4238 41.2555C34.4918 41.279 34.5703 41.2908 34.6592 41.2908C34.7847 41.2908 34.8893 41.2725 34.9729 41.2359C35.0566 41.2019 35.1207 41.1457 35.1651 41.0672C35.2096 40.9888 35.2318 40.8855 35.2318 40.7574V40.3534H35.2043C35.1573 40.4789 35.0736 40.5809 34.9533 40.6593C34.833 40.7352 34.6905 40.7731 34.5258 40.7731C34.4003 40.7731 34.2853 40.7522 34.1807 40.7103C34.0787 40.6659 33.9911 40.6018 33.9179 40.5182C33.8447 40.4319 33.7885 40.3273 33.7493 40.2044C33.71 40.0789 33.6904 39.9377 33.6904 39.7808C33.6904 39.569 33.7257 39.3886 33.7963 39.2396C33.8669 39.0905 33.965 38.9781 34.0905 38.9023C34.216 38.8238 34.3624 38.7846 34.5297 38.7846C34.6945 38.7846 34.8357 38.8225 34.9533 38.8984C35.0736 38.9742 35.1573 39.0762 35.2043 39.2043H35.2318L35.2396 38.8199H35.6318V40.7025C35.6318 40.8646 35.6083 41.0019 35.5612 41.1143C35.5142 41.2293 35.4475 41.3209 35.3612 41.3888C35.2749 41.4594 35.1703 41.5104 35.0474 41.5418C34.9272 41.5732 34.7951 41.5889 34.6513 41.5889ZM34.6631 40.4593C34.7834 40.4593 34.8853 40.4319 34.969 40.377C35.0527 40.3221 35.1167 40.2528 35.1612 40.1691C35.2056 40.0828 35.2292 39.9939 35.2318 39.9024L35.2279 39.6514C35.2252 39.5625 35.203 39.4762 35.1612 39.3925C35.1194 39.3063 35.0566 39.237 34.9729 39.1847C34.8919 39.1298 34.7899 39.1023 34.667 39.1023C34.552 39.1023 34.4526 39.1285 34.3689 39.1807C34.2853 39.233 34.2199 39.3102 34.1728 39.4121C34.1284 39.5141 34.1062 39.637 34.1062 39.7808C34.1062 39.9272 34.1284 40.0514 34.1728 40.1534C34.2199 40.2528 34.2853 40.3286 34.3689 40.3809C34.4526 40.4332 34.5507 40.4593 34.6631 40.4593ZM37.4307 40.8947V38.8199H37.8347V40.8947H37.4307ZM37.4307 38.5022V38.0355H37.8347V38.5022H37.4307ZM40.4745 40.93C40.2732 40.93 40.0993 40.8868 39.9529 40.8005C39.8091 40.7116 39.6993 40.5874 39.6235 40.4279C39.5476 40.2685 39.5097 40.0815 39.5097 39.8671C39.5097 39.6475 39.5476 39.4566 39.6235 39.2945C39.6993 39.1324 39.8078 39.0082 39.949 38.9219C40.0928 38.833 40.2641 38.7885 40.4628 38.7885C40.6798 38.7885 40.8589 38.8382 41.0001 38.9376C41.1439 39.0343 41.2472 39.169 41.3099 39.3415C41.3727 39.5141 41.3962 39.7128 41.3805 39.9377H39.9058C39.9085 40.0893 39.9333 40.2162 39.9804 40.3181C40.0274 40.4175 40.0928 40.4933 40.1765 40.5456C40.2628 40.5953 40.3621 40.6201 40.4745 40.6201C40.6131 40.6201 40.7269 40.5874 40.8158 40.5221C40.9047 40.4541 40.9609 40.3665 40.9844 40.2593H41.3688C41.3505 40.3979 41.3008 40.5182 41.2197 40.6201C41.1387 40.7195 41.0341 40.7966 40.906 40.8515C40.7778 40.9038 40.634 40.93 40.4745 40.93ZM39.9098 39.7141L39.8705 39.6632H41.0236L40.9844 39.7181C40.987 39.5743 40.9661 39.4566 40.9216 39.3651C40.8798 39.2736 40.8184 39.2069 40.7373 39.1651C40.6589 39.1206 40.5674 39.0984 40.4628 39.0984C40.353 39.0984 40.2575 39.1219 40.1765 39.169C40.0954 39.216 40.0314 39.2853 39.9843 39.3768C39.9372 39.4684 39.9124 39.5808 39.9098 39.7141ZM43.784 40.9339C43.6036 40.9339 43.4481 40.9051 43.3173 40.8476C43.1866 40.7901 43.0859 40.7103 43.0153 40.6084C42.9474 40.5038 42.9134 40.3822 42.9134 40.2436H43.3134C43.3134 40.3796 43.3579 40.4802 43.4468 40.5456C43.5357 40.6084 43.6507 40.6397 43.7919 40.6397C43.9357 40.6397 44.0442 40.6136 44.1174 40.5613C44.1932 40.5064 44.2312 40.4306 44.2312 40.3338C44.2312 40.2606 44.2142 40.2044 44.1802 40.1652C44.1462 40.1233 44.0939 40.0907 44.0233 40.0671C43.9553 40.0436 43.8638 40.024 43.7487 40.0083C43.5736 39.9821 43.4285 39.9482 43.3134 39.9063C43.1984 39.8619 43.1121 39.8004 43.0546 39.722C42.997 39.6409 42.9683 39.5363 42.9683 39.4082C42.9683 39.2827 43.0023 39.1742 43.0702 39.0827C43.1408 38.9886 43.2376 38.9154 43.3605 38.8631C43.4834 38.8082 43.6259 38.7807 43.788 38.7807C43.9553 38.7807 44.0991 38.8082 44.2194 38.8631C44.3397 38.918 44.4325 38.9938 44.4979 39.0905C44.5632 39.1873 44.5972 39.301 44.5998 39.4318H44.2037C44.2011 39.3481 44.1815 39.2814 44.1449 39.2317C44.1109 39.1794 44.0625 39.1415 43.9998 39.118C43.9396 39.0918 43.8664 39.0788 43.7801 39.0788C43.652 39.0788 43.5513 39.1049 43.4781 39.1572C43.4075 39.2095 43.3722 39.2801 43.3722 39.369C43.3722 39.437 43.3905 39.4919 43.4271 39.5337C43.4637 39.5729 43.52 39.6043 43.5958 39.6279C43.6742 39.6488 43.7736 39.6684 43.8939 39.6867C44.0141 39.7024 44.12 39.7246 44.2115 39.7534C44.3057 39.7795 44.3841 39.8161 44.4469 39.8632C44.5122 39.9102 44.5606 39.9691 44.592 40.0397C44.6234 40.1103 44.639 40.1965 44.639 40.2985C44.639 40.5025 44.5606 40.6593 44.4037 40.7692C44.2468 40.879 44.0403 40.9339 43.784 40.9339Z" fill="#023E8A"/>
</svg>
