<svg width="84" height="84" viewBox="0 0 84 84" fill="none" xmlns="http://www.w3.org/2000/svg">
<path d="M22 18C22 15.8783 22.8429 13.8434 24.3431 12.3431C25.8434 10.8429 27.8783 10 30 10H54C56.1217 10 58.1566 10.8429 59.6569 12.3431C61.1571 13.8434 62 15.8783 62 18V66C62 68.1217 61.1571 70.1566 59.6569 71.6569C58.1566 73.1571 56.1217 74 54 74H30C27.8783 74 25.8434 73.1571 24.3431 71.6569C22.8429 70.1566 22 68.1217 22 66V18ZM46 62C46 60.9391 45.5786 59.9217 44.8284 59.1716C44.0783 58.4214 43.0609 58 42 58C40.9391 58 39.9217 58.4214 39.1716 59.1716C38.4214 59.9217 38 60.9391 38 62C38 63.0609 38.4214 64.0783 39.1716 64.8284C39.9217 65.5786 40.9391 66 42 66C43.0609 66 44.0783 65.5786 44.8284 64.8284C45.5786 64.0783 46 63.0609 46 62Z" fill="#4BCDE7"/>
</svg>
