<svg width="101" height="100" viewBox="0 0 101 100" fill="none" xmlns="http://www.w3.org/2000/svg">
<rect x="0.5" width="100" height="100" rx="25" fill="#4BCDE7"/>
<path d="M48.8879 27.9785C45.6619 28.214 42.4595 29.2147 39.775 30.8278C36.6079 32.7233 33.9352 35.4548 32.1456 38.5984C31.5098 39.7405 30.5208 42.0246 30.3913 42.6839C30.3207 43.0018 30.2854 43.0254 29.5907 43.0725C27.648 43.1902 25.4581 45.0269 24.5869 47.2875C24.0217 48.7357 23.8333 49.8542 23.8333 51.7027C23.8333 54.081 24.3749 56.2002 25.411 57.9545C26.0468 59.0377 27.3419 60.2857 28.2956 60.7331C29.0256 61.0864 29.214 61.1217 30.1676 61.1099C30.8976 61.1099 31.5216 61.0275 32.1692 60.8391C33.8411 60.3682 34.2885 59.909 34.2649 58.6492C34.2649 58.2606 33.9352 55.7999 33.5232 53.1744C33.1229 50.5488 32.805 48.0646 32.805 47.6525C32.805 47.2404 32.8874 46.4398 32.9933 45.8864C34.3473 38.516 39.987 32.8764 47.4162 31.44C49.0881 31.1221 52.1257 31.1456 53.7741 31.4989C57.8007 32.3466 60.9443 34.1362 63.6405 37.1032C66.113 39.8229 67.726 43.3786 68.1145 46.9931C68.2087 47.8291 68.1616 48.3354 67.6671 51.5849L67.1137 55.2348L66.5251 56.471C64.0526 61.6397 59.4726 65.219 53.88 66.361C52.9381 66.5494 52.267 66.5965 50.1006 66.5965C48.5465 66.5965 47.2867 66.6554 47.0041 66.726C46.4037 66.8908 45.709 67.5855 45.5442 68.1859C45.3794 68.7746 45.3794 69.9285 45.5324 70.5054C45.6855 71.0352 46.1329 71.6003 46.6391 71.8711C46.957 72.0477 47.4162 72.0713 50.4774 72.0713C53.5386 72.0713 53.9978 72.0477 54.3156 71.8711C55.0574 71.4708 55.5401 70.6231 55.5401 69.7165C55.5401 69.3751 55.5754 69.3515 56.5056 69.0925C58.7426 68.4685 61.4506 67.0792 63.4403 65.5133C64.6295 64.5832 66.4309 62.7465 67.3492 61.522L68.0321 60.6154L69.1742 60.9097C70.6576 61.2865 71.5642 61.2394 72.6592 60.7331C74.9904 59.6382 76.7094 56.6241 77.0979 52.9271C77.4982 49.1242 76.1207 45.3919 73.7542 43.8613C73.0595 43.4139 71.8468 43.0489 71.0344 43.0489C70.6694 43.0489 70.6223 43.0136 70.5517 42.6722C70.4104 42.0717 69.4803 39.8111 68.9975 38.9517C67.0196 35.3607 64.0526 32.3819 60.4851 30.4157C57.2002 28.6143 52.8557 27.6959 48.8879 27.9785Z" fill="#031317"/>
<path d="M49.2765 34.4655C44.0018 34.8187 39.2452 38.1507 37.1612 42.9544C35.5247 46.722 35.5129 51.1489 37.1495 54.9048C37.644 56.0586 38.9155 58.0719 39.5042 58.6253L39.8457 58.9549L39.3865 60.98C38.8684 63.2288 38.8567 63.8411 39.3041 64.312C39.8103 64.8418 40.2577 64.7241 42.5419 63.4643L44.5787 62.3458L45.6148 62.699C50.0064 64.1943 54.8808 63.5703 58.6837 61.0271C61.8155 58.9314 63.9466 55.7642 64.7354 51.9849C65.0533 50.4307 65.0886 47.864 64.8061 46.2864C63.9937 41.7888 61.2504 38.0683 57.2355 36.0196C54.7866 34.7598 52.267 34.2771 49.2765 34.4655ZM43.8134 46.3923C44.5905 46.6278 45.1085 47.0634 45.4618 47.7816C45.8503 48.5587 45.8621 49.2651 45.4853 50.0775C44.8495 51.4433 43.2483 51.9849 41.9061 51.302C39.7868 50.207 40.0694 47.1223 42.3535 46.4041C43.0364 46.1922 43.1541 46.1922 43.8134 46.3923ZM51.5959 46.5454C52.8792 47.1929 53.4915 48.8059 52.9028 50.0069C52.4671 50.9252 51.3957 51.6434 50.4774 51.6434C49.3942 51.6434 48.2521 50.7486 47.9342 49.6772C47.3102 47.5108 49.6061 45.5564 51.5959 46.5454ZM58.5542 46.4041C60.8736 47.0987 61.1915 50.1953 59.0487 51.302C57.7065 51.9849 56.1052 51.4433 55.4695 50.0775C55.0927 49.2651 55.1045 48.5587 55.493 47.7816C55.8462 47.0752 56.3643 46.6278 57.0942 46.4041C57.7536 46.1922 57.8595 46.1922 58.5542 46.4041Z" fill="#031317"/>
</svg>
