<svg width="84" height="85" viewBox="0 0 84 85" fill="none" xmlns="http://www.w3.org/2000/svg">
<path d="M42 53.1667C40.5333 53.1667 39.2782 52.6449 38.2347 51.6013C37.1911 50.5578 36.6684 49.3018 36.6667 47.8333C36.6649 46.3649 37.1876 45.1098 38.2347 44.068C39.2818 43.0262 40.5369 42.5036 42 42.5C43.4631 42.4964 44.7191 43.0191 45.768 44.068C46.8169 45.1169 47.3387 46.372 47.3333 47.8333C47.328 49.2947 46.8062 50.5507 45.768 51.6013C44.7298 52.652 43.4738 53.1738 42 53.1667ZM29.6667 29.1667H54.3333L57.7333 22.3667C58.1778 21.4778 58.144 20.6111 57.632 19.7667C57.12 18.9222 56.3538 18.5 55.3333 18.5H28.6667C27.6444 18.5 26.8782 18.9222 26.368 19.7667C25.8578 20.6111 25.824 21.4778 26.2667 22.3667L29.6667 29.1667ZM32.4 66.5H51.6C55.6 66.5 59 65.1116 61.8 62.3347C64.6 59.5578 66 56.1462 66 52.1C66 50.4111 65.7111 48.7667 65.1333 47.1667C64.5556 45.5667 63.7333 44.1222 62.6667 42.8333L55.7333 34.5H28.2667L21.3333 42.8333C20.2667 44.1222 19.4444 45.5667 18.8667 47.1667C18.2889 48.7667 18 50.4111 18 52.1C18 56.1444 19.3893 59.556 22.168 62.3347C24.9467 65.1133 28.3573 66.5018 32.4 66.5Z" fill="#4BCDE7"/>
</svg>
